:FULLY-SPECIFIED
:FORCE-ALL-JOINTS-BE-3DOF
:DEGREES
1019
root 1.14595 15.161 32.4329 4.83474 -3.41822 363.585
lfemur 8.40085 0.446647 5.7209
ltibia -1.4367e-14 0 0
lfoot -30.1167 -11.0295 0
ltoes -34.371 0 0
rfemur -31.5532 -15.9192 -6.03065
rtibia 50.1602 0 0
rfoot -22.4524 4.53204 0
rtoes -42.8058 0 0
lowerback -1.3818 -0.166263 0.334174
upperback -0.51734 -0.211381 -5.91736
thorax 0.219407 -0.112932 -6.32738
lowerneck -7.24148 0.924097 6.16575
upperneck 1.63252 0.548209 3.50558
head 1.75149 0.408603 0.0782954
lclavicle -1.29964e-15 2.33029e-14 0
lhumerus -58.631 -46.4527 115.289
lradius 55.7174 0 0
lwrist 25.1938 0 0
lhand 37.2258 24.8259 0
lfingers 7.12502 0 0
lthumb 60.0585 38.5447 0
rclavicle -1.29964e-15 2.33029e-14 0
rhumerus 2.77797 -23.8978 0.230111
rradius 27.6617 0 0
rwrist -10.3638 0 0
rhand -30.7458 -43.0261 0
rfingers 7.12502 0 0
rthumb -4.03764 -792.968 0
1020
root 1.14614 15.1607 32.4358 4.83462 -3.40646 363.568
lfemur 8.40969 0.436613 5.73921
ltibia -7.67008e-15 0 0
lfoot -30.1217 -11.0176 0
ltoes -34.39 0 0
rfemur -31.543 -15.9163 -6.02053
rtibia 50.1715 0 0
rfoot -22.4187 4.58059 0
rtoes -42.7237 0 0
lowerback -1.39644 -0.157766 0.312683
upperback -0.519538 -0.199336 -5.92557
thorax 0.226772 -0.106762 -6.32362
lowerneck -7.24069 0.916798 6.19776
upperneck 1.65292 0.534556 3.50887
head 1.75802 0.402837 0.0734798
lclavicle -1.04503e-15 1.61085e-14 0
lhumerus -58.6418 -46.4667 115.292
lradius 55.7313 0 0
lwrist 25.2043 0 0
lhand 37.2321 24.8647 0
lfingers 7.12502 0 0
lthumb 60.0639 38.5779 0
rclavicle -1.04503e-15 1.61085e-14 0
rhumerus 2.76302 -23.8837 0.23651
rradius 27.6562 0 0
rwrist -10.3201 0 0
rhand -30.735 -42.9598 0
rfingers 7.12502 0 0
rthumb -4.02725 -792.902 0
1021
root 1.14643 15.1605 32.4391 4.83554 -3.39698 363.551
lfemur 8.42014 0.429073 5.75668
ltibia -5.94694e-16 0 0
lfoot -30.1277 -11.0054 0
ltoes -34.4089 0 0
rfemur -31.5343 -15.9144 -6.01085
rtibia 50.1831 0 0
rfoot -22.3834 4.63648 0
rtoes -42.6331 0 0
lowerback -1.41302 -0.149397 0.289856
upperback -0.52216 -0.187403 -5.93382
thorax 0.234773 -0.100648 -6.31914
lowerneck -7.23747 0.909937 6.23139
upperneck 1.6716 0.521624 3.5122
head 1.76358 0.397358 0.0684189
lclavicle -7.64373e-16 8.71335e-15 0
lhumerus -58.6527 -46.4802 115.296
lradius 55.7433 0 0
lwrist 25.2178 0 0
lhand 37.2388 24.9046 0
lfingers 7.12502 0 0
lthumb 60.0695 38.6118 0
rclavicle -7.64373e-16 8.71335e-15 0
rhumerus 2.75044 -23.8689 0.241242
rradius 27.6509 0 0
rwrist -10.2758 0 0
rhand -30.7251 -42.8915 0
rfingers 7.12502 0 0
rthumb -4.01765 -792.834 0
1022
root 1.14694 15.1602 32.4426 4.8371 -3.38987 363.535
lfemur 8.432 0.423891 5.77203
ltibia 6.10314e-15 0 0
lfoot -30.1347 -10.9947 0
ltoes -34.4256 0 0
rfemur -31.5266 -15.9153 -6.00297
rtibia 50.1942 0 0
rfoot -22.3479 4.70027 0
rtoes -42.5356 0 0
lowerback -1.43093 -0.141316 0.266094
upperback -0.524659 -0.175789 -5.94207
thorax 0.243619 -0.0946827 -6.31414
lowerneck -7.23196 0.903596 6.26485
upperneck 1.68661 0.509774 3.51549
head 1.76753 0.392262 0.0633988
lclavicle -4.69631e-16 1.72519e-15 0
lhumerus -58.6631 -46.4942 115.3
lradius 55.7534 0 0
lwrist 25.2336 0 0
lhand 37.2458 24.9436 0
lfingers 7.12502 0 0
lthumb 60.0755 38.6444 0
rclavicle -4.69631e-16 1.72519e-15 0
rhumerus 2.7397 -23.8547 0.245276
rradius 27.6451 0 0
rwrist -10.232 0 0
rhand -30.7156 -42.8245 0
rfingers 7.12502 0 0
rthumb -4.00849 -792.767 0
1023
root 1.14775 15.16 32.4463 4.83866 -3.38484 363.522
lfemur 8.44497 0.420494 5.78388
ltibia 1.14615e-14 0 0
lfoot -30.1424 -10.988 0
ltoes -34.4376 0 0
rfemur -31.5188 -15.9214 -5.99859
rtibia 50.2037 0 0
rfoot -22.3136 4.77268 0
rtoes -42.4335 0 0
lowerback -1.44942 -0.133604 0.24176
upperback -0.526281 -0.164587 -5.9504
thorax 0.25364 -0.0888973 -6.30889
lowerneck -7.22458 0.897738 6.2961
upperneck 1.69579 0.499229 3.51869
head 1.76924 0.387569 0.0587603
lclavicle -1.75735e-16 -4.11865e-15 0
lhumerus -58.6724 -46.5103 115.305
lradius 55.7622 0 0
lwrist 25.2508 0 0
lhand 37.2532 24.9795 0
lfingers 7.12502 0 0
lthumb 60.0818 38.6736 0
rclavicle -1.75735e-16 -4.11865e-15 0
rhumerus 2.7296 -23.8425 0.250173
rradius 27.6375 0 0
rwrist -10.1891 0 0
rhand -30.7058 -42.7624 0
rfingers 7.12502 0 0
rthumb -3.99902 -792.705 0
1024
root 1.14901 15.1597 32.45 4.83932 -3.38123 363.512
lfemur 8.45864 0.417884 5.79077
ltibia 1.43125e-14 0 0
lfoot -30.1505 -10.9878 0
ltoes -34.4418 0 0
rfemur -31.5095 -15.9352 -5.99968
rtibia 50.2104 0 0
rfoot -22.2819 4.85469 0
rtoes -42.3292 0 0
lowerback -1.46754 -0.126261 0.217172
upperback -0.526073 -0.153777 -5.95898
thorax 0.265286 -0.0832606 -6.30377
lowerneck -7.21602 0.892208 6.32273
upperneck 1.69671 0.49007 3.52178
head 1.76802 0.383222 0.0548987
lclavicle 9.93923e-17 -7.95139e-15 0
lhumerus -58.68 -46.5308 115.309
lradius 55.7707 0 0
lwrist 25.268 0 0
lhand 37.2613 25.0098 0
lfingers 7.12502 0 0
lthumb 60.0887 38.6966 0
rclavicle 9.93923e-17 -7.95139e-15 0
rhumerus 2.71832 -23.834 0.258088
rradius 27.6264 0 0
rwrist -10.1476 0 0
rhand -30.6945 -42.7094 0
rfingers 7.12502 0 0
rthumb -3.98815 -792.652 0
1025
root 1.14922 15.1597 32.4505 4.83931 -3.38097 363.511
lfemur 8.4605 0.417673 5.79108
ltibia 1.43672e-14 0 0
lfoot -30.1516 -10.9885 0
ltoes -34.4415 0 0
rfemur -31.5082 -15.9381 -6.00044
rtibia 50.211 0 0
rfoot -22.2781 4.86686 0
rtoes -42.3152 0 0
lowerback -1.46987 -0.125371 0.21398
upperback -0.525835 -0.152446 -5.96011
thorax 0.266995 -0.0825594 -6.30313
lowerneck -7.21474 0.891565 6.32563
upperneck 1.69589 0.489095 3.52214
head 1.76752 0.382724 0.0544832
lclavicle 1.32037e-16 -8.19249e-15 0
lhumerus -58.6808 -46.534 115.309
lradius 55.7717 0 0
lwrist 25.2703 0 0
lhand 37.2624 25.013 0
lfingers 7.12502 0 0
lthumb 60.0897 38.6988 0
rclavicle 1.32037e-16 -8.19249e-15 0
rhumerus 2.7169 -23.8334 0.259367
rradius 27.6245 0 0
rwrist -10.1423 0 0
rhand -30.6929 -42.7036 0
rfingers 7.12502 0 0
rthumb -3.98656 -792.646 0
1026
root 1.14986 15.1596 32.4519 4.8393 -3.38079 363.51
lfemur 8.46594 0.417579 5.79121
ltibia 1.41752e-14 0 0
lfoot -30.1547 -10.9912 0
ltoes -34.4398 0 0
rfemur -31.5048 -15.9481 -6.00319
rtibia 50.2124 0 0
rfoot -22.2677 4.90399 0
rtoes -42.2742 0 0
lowerback -1.47659 -0.123026 0.205048
upperback -0.525009 -0.148903 -5.96327
thorax 0.272032 -0.0806833 -6.30131
lowerneck -7.21066 0.889996 6.33325
upperneck 1.69252 0.486818 3.52302
head 1.76569 0.381505 0.053382
lclavicle 2.20148e-16 -8.56226e-15 0
lhumerus -58.6827 -46.5432 115.311
lradius 55.774 0 0
lwrist 25.2769 0 0
lhand 37.2657 25.0212 0
lfingers 7.12502 0 0
lthumb 60.0925 38.704 0
rclavicle 2.20148e-16 -8.56226e-15 0
rhumerus 2.71368 -23.832 0.262761
rradius 27.6189 0 0
rwrist -10.1276 0 0
rhand -30.6881 -42.6883 0
rfingers 7.12502 0 0
rthumb -3.98199 -792.631 0
1027
root 1.15094 15.1594 32.4541 4.83935 -3.38147 363.508
lfemur 8.47469 0.418272 5.7902
ltibia 1.33271e-14 0 0
lfoot -30.1597 -10.9965 0
ltoes -34.4357 0 0
rfemur -31.5001 -15.9663 -6.00847
rtibia 50.2142 0 0
rfoot -22.2522 4.96588 0
rtoes -42.2086 0 0
lowerback -1.48723 -0.119661 0.1913
upperback -0.523473 -0.14375 -5.96808
thorax 0.280187 -0.0779382 -6.29848
lowerneck -7.20356 0.887948 6.34413
upperneck 1.68549 0.484045 3.52421
head 1.76213 0.37991 0.0517955
lclavicle 3.50992e-16 -8.64057e-15 0
lhumerus -58.6852 -46.558 115.313
lradius 55.7767 0 0
lwrist 25.2877 0 0
lhand 37.271 25.0325 0
lfingers 7.12502 0 0
lthumb 60.097 38.7105 0
rclavicle 3.50992e-16 -8.64057e-15 0
rhumerus 2.70989 -23.8307 0.267716
rradius 27.6095 0 0
rwrist -10.1052 0 0
rhand -30.6807 -42.6667 0
rfingers 7.12502 0 0
rthumb -3.97484 -792.609 0
1028
root 1.15243 15.1592 32.4569 4.83949 -3.38352 363.507
lfemur 8.48641 0.420225 5.78733
ltibia 1.15805e-14 0 0
lfoot -30.1664 -11.0048 0
ltoes -34.4288 0 0
rfemur -31.4945 -15.9928 -6.01662
rtibia 50.216 0 0
rfoot -22.2329 5.05081 0
rtoes -42.1214 0 0
lowerback -1.50125 -0.115631 0.173606
upperback -0.521177 -0.137492 -5.9742
thorax 0.291155 -0.0745832 -6.29477
lowerneck -7.19343 0.885746 6.35705
upperneck 1.67406 0.48136 3.52554
head 1.75659 0.378191 0.0499008
lclavicle 5.14494e-16 -8.15415e-15 0
lhumerus -58.6879 -46.5777 115.317
lradius 55.7793 0 0
lwrist 25.3024 0 0
lhand 37.278 25.0453 0
lfingers 7.12502 0 0
lthumb 60.1029 38.717 0
rclavicle 5.14494e-16 -8.15415e-15 0
rhumerus 2.70633 -23.8299 0.273829
rradius 27.5967 0 0
rwrist -10.0767 0 0
rhand -30.6711 -42.6411 0
rfingers 7.12502 0 0
rthumb -3.96554 -792.584 0
1029
root 1.1543 15.159 32.4603 4.83978 -3.38727 363.507
lfemur 8.50072 0.423723 5.7822
ltibia 8.85988e-15 0 0
lfoot -30.1746 -11.0161 0
ltoes -34.4185 0 0
rfemur -31.4885 -16.0269 -6.02774
rtibia 50.2175 0 0
rfoot -22.2109 5.15556 0
rtoes -42.0164 0 0
lowerback -1.51805 -0.111216 0.152779
upperback -0.518136 -0.130536 -5.98131
thorax 0.304534 -0.07083 -6.2903
lowerneck -7.18042 0.883592 6.37104
upperneck 1.65787 0.479129 3.52695
head 1.74898 0.376508 0.0478515
lclavicle 7.0324e-16 -6.97654e-15 0
lhumerus -58.6905 -46.6016 115.321
lradius 55.7812 0 0
lwrist 25.3203 0 0
lhand 37.2864 25.0586 0
lfingers 7.12502 0 0
lthumb 60.1101 38.7227 0
rclavicle 7.0324e-16 -6.97654e-15 0
rhumerus 2.70334 -23.83 0.28085
rradius 27.5808 0 0
rwrist -10.044 0 0
rhand -30.6598 -42.6138 0
rfingers 7.12502 0 0
rthumb -3.95463 -792.557 0
1030
root 1.15653 15.1587 32.4641 4.84025 -3.3928 363.508
lfemur 8.51713 0.428858 5.77466
ltibia 5.25638e-15 0 0
lfoot -30.184 -11.0304 0
ltoes -34.4048 0 0
rfemur -31.4821 -16.0669 -6.04175
rtibia 50.2183 0 0
rfoot -22.1874 5.27538 0
rtoes -41.8982 0 0
lowerback -1.53696 -0.106619 0.129579
upperback -0.514433 -0.12319 -5.98911
thorax 0.319824 -0.0668434 -6.2852
lowerneck -7.1649 0.881569 6.38539
upperneck 1.63692 0.477493 3.52845
head 1.73936 0.374931 0.0457777
lclavicle 9.12479e-16 -5.12819e-15 0
lhumerus -58.6928 -46.6286 115.326
lradius 55.7822 0 0
lwrist 25.3411 0 0
lhand 37.2958 25.0716 0
lfingers 7.12502 0 0
lthumb 60.1182 38.7271 0
rclavicle 9.12479e-16 -5.12819e-15 0
rhumerus 2.70079 -23.831 0.288678
rradius 27.5627 0 0
rwrist -10.0088 0 0
rhand -30.6475 -42.5862 0
rfingers 7.12502 0 0
rthumb -3.9427 -792.53 0
1031
root 1.15906 15.1585 32.4683 4.84095 -3.39996 363.511
lfemur 8.53513 0.435528 5.76485
ltibia 1.0281e-15 0 0
lfoot -30.1945 -11.0473 0
ltoes -34.3879 0 0
rfemur -31.4754 -16.1102 -6.05831
rtibia 50.2183 0 0
rfoot -22.1631 5.40401 0
rtoes -41.7721 0 0
lowerback -1.55725 -0.101964 0.104711
upperback -0.510221 -0.115664 -5.9973
thorax 0.336429 -0.0627412 -6.27957
lowerneck -7.14738 0.879634 6.3996
upperneck 1.61159 0.476373 3.53012
head 1.72796 0.373437 0.0437862
lclavicle 1.14012e-15 -2.77636e-15 0
lhumerus -58.6947 -46.6577 115.331
lradius 55.7826 0 0
lwrist 25.364 0 0
lhand 37.3059 25.084 0
lfingers 7.12502 0 0
lthumb 60.1268 38.7304 0
rclavicle 1.14012e-15 -2.77636e-15 0
rhumerus 2.69815 -23.8329 0.297367
rradius 27.5431 0 0
rwrist -9.97289 0 0
rhand -30.6348 -42.5596 0
rfingers 7.12502 0 0
rthumb -3.93043 -792.503 0
